<?xml version="1.0" encoding="UTF-8"?>
<svg width="204px" height="80px" viewBox="0 0 204 80" version="1.1" xmlns="http://www.w3.org/2000/svg" xmlns:xlink="http://www.w3.org/1999/xlink">
    <title>TDW Logo</title>
    <g id="Website" stroke="none" stroke-width="1" fill="none" fill-rule="evenodd">
        <g id="TDW-Logo" fill="#FFFFFF">
            <g id="Name" transform="translate(95, 4)" fill-rule="nonzero">
                <polygon id="T" points="70.2292196 53.3437512 70.2292196 56.9486963 65.3824095 56.9486963 65.3824095 71.8158057 60.9264712 71.8158057 60.9264712 56.9486963 56.0796611 56.9486963 56.0796611 53.3437512"></polygon>
                <path d="M48.1484438,72 C46.8107937,72 45.6121202,71.7807211 44.5524234,71.3421633 C43.4927266,70.9036055 42.6458377,70.25454 42.0117568,69.3949667 C41.3776759,68.5353934 41.0432634,67.500397 41.0085193,66.2899774 L45.7510969,66.2899774 C45.8205852,66.9741276 46.0551082,67.4960114 46.4546661,67.8556288 C46.8542239,68.2152462 47.3753863,68.3950549 48.0181532,68.3950549 C48.6782922,68.3950549 49.1994546,68.2415597 49.5816403,67.9345692 C49.9638261,67.6275787 50.1549189,67.2021777 50.1549189,66.658366 C50.1549189,66.2022659 50.0029132,65.8251062 49.6989019,65.5268869 C49.3948905,65.2286676 49.0213908,64.9830752 48.5784027,64.7901098 C48.1354147,64.5971443 47.5056769,64.3778654 46.6891891,64.1322731 C45.5078878,63.7638845 44.5437374,63.395496 43.796738,63.0271074 C43.0497386,62.6587189 42.4069716,62.1149072 41.8684372,61.3956724 C41.3299027,60.6764376 41.0606355,59.7379239 41.0606355,58.5801313 C41.0606355,56.8609847 41.6773443,55.5146123 42.9107619,54.541014 C44.1441795,53.5674157 45.7510969,53.0806165 47.7315139,53.0806165 C49.7466751,53.0806165 51.3709645,53.5674157 52.6043821,54.541014 C53.8377997,55.5146123 54.4979387,56.8697559 54.5847991,58.6064448 L49.7640471,58.6064448 C49.729303,58.0100062 49.512152,57.5407493 49.1125942,57.1986742 C48.7130364,56.8565992 48.20056,56.6855616 47.5751652,56.6855616 C47.0366307,56.6855616 46.6023287,56.8302857 46.2722592,57.1197338 C45.9421897,57.409182 45.777155,57.8258119 45.777155,58.3696236 C45.777155,58.9660622 46.0551082,59.4309334 46.6110148,59.7642374 C47.1669213,60.0975413 48.0355253,60.4571587 49.2168267,60.8430896 C50.398128,61.2465627 51.3579354,61.6324936 52.0962488,62.0008822 C52.8345621,62.3692707 53.472986,62.9043112 54.0115205,63.6060037 C54.550055,64.3076962 54.8193222,65.2111253 54.8193222,66.3162909 C54.8193222,67.3688296 54.554398,68.3248856 54.0245496,69.1844589 C53.4947011,70.0440322 52.7259866,70.7281824 51.7184061,71.2369094 C50.7108255,71.7456365 49.520838,72 48.1484438,72 Z" id="S"></path>
                <polygon id="E" points="32.3737327 56.9486963 32.3737327 60.6852088 38.3410419 60.6852088 38.3410419 64.1585865 32.3737327 64.1585865 32.3737327 68.2108606 39.1227855 68.2108606 39.1227855 71.8158057 27.9177944 71.8158057 27.9177944 53.3437512 39.1227855 53.3437512 39.1227855 56.9486963"></polygon>
                <polygon id="W" points="26.1623512 53.3437512 21.3937155 71.8158057 15.9996849 71.8158057 13.0811756 59.6589835 10.0584338 71.8158057 4.66440325 71.8158057 0.0260581187 53.3437512 4.79469385 53.3437512 7.42656384 66.7899333 10.6838287 53.3437512 15.582755 53.3437512 18.7097292 66.7899333 21.3676574 53.3437512"></polygon>
                <path d="M102.329122,45.686532 C100.991472,45.686532 99.792798,45.4672531 98.7331012,45.0286953 C97.6734044,44.5901375 96.8265155,43.9410719 96.1924346,43.0814987 C95.5583538,42.2219254 95.2239412,41.186929 95.1891971,39.9765094 L99.9317747,39.9765094 C100.001263,40.6606596 100.235786,41.1825434 100.635344,41.5421608 C101.034902,41.9017782 101.556064,42.0815869 102.198831,42.0815869 C102.85897,42.0815869 103.380132,41.9280916 103.762318,41.6211012 C104.144504,41.3141107 104.335597,40.8887097 104.335597,40.344898 C104.335597,39.8887979 104.183591,39.5116382 103.87958,39.2134189 C103.575568,38.9151996 103.202069,38.6696072 102.759081,38.4766418 C102.316093,38.2836763 101.686355,38.0643974 100.869867,37.8188051 C99.6885656,37.4504165 98.7244152,37.082028 97.9774158,36.7136394 C97.2304164,36.3452508 96.5876494,35.8014392 96.049115,35.0822044 C95.5105805,34.3629696 95.2413133,33.4244559 95.2413133,32.2666633 C95.2413133,30.5475167 95.8580221,29.2011443 97.0914397,28.227546 C98.3248574,27.2539477 99.9317747,26.7671485 101.912192,26.7671485 C103.927353,26.7671485 105.551642,27.2539477 106.78506,28.227546 C108.018478,29.2011443 108.678617,30.5562879 108.765477,32.2929768 L103.944725,32.2929768 C103.909981,31.6965382 103.69283,31.2272813 103.293272,30.8852062 C102.893714,30.5431312 102.381238,30.3720936 101.755843,30.3720936 C101.217309,30.3720936 100.783007,30.5168177 100.452937,30.8062658 C100.122868,31.095714 99.9578328,31.5123439 99.9578328,32.0561556 C99.9578328,32.6525942 100.235786,33.1174654 100.791693,33.4507694 C101.347599,33.7840733 102.216203,34.1436907 103.397504,34.5296216 C104.578806,34.9330947 105.538613,35.3190256 106.276927,35.6874141 C107.01524,36.0558027 107.653664,36.5908432 108.192198,37.2925357 C108.730733,37.9942282 109,38.8976572 109,40.0028229 C109,41.0553616 108.735076,42.0114176 108.205227,42.8709909 C107.675379,43.7305642 106.906664,44.4147144 105.899084,44.9234414 C104.891503,45.4321685 103.701516,45.686532 102.329122,45.686532 Z" id="S"></path>
                <polygon id="E" points="86.5544105 30.6352283 86.5544105 34.3717407 92.5217197 34.3717407 92.5217197 37.8451185 86.5544105 37.8451185 86.5544105 41.8973926 93.3034633 41.8973926 93.3034633 45.5023377 82.0984722 45.5023377 82.0984722 27.0302832 93.3034633 27.0302832 93.3034633 30.6352283"></polygon>
                <polygon id="E" points="72.9425233 30.6352283 72.9425233 34.3717407 78.9098325 34.3717407 78.9098325 37.8451185 72.9425233 37.8451185 72.9425233 41.8973926 79.6915761 41.8973926 79.6915761 45.5023377 68.486585 45.5023377 68.486585 27.0302832 79.6915761 27.0302832 79.6915761 30.6352283"></polygon>
                <path d="M61.3110531,45.5023377 L57.5065678,38.5292687 L56.4381849,38.5292687 L56.4381849,45.5023377 L51.9822466,45.5023377 L51.9822466,27.0302832 L59.4609267,27.0302832 C60.9028092,27.0302832 62.1318838,27.2846467 63.1481505,27.7933737 C64.1644171,28.3021008 64.9244456,28.9994077 65.4282359,29.8852945 C65.9320262,30.7711812 66.1839213,31.7579363 66.1839213,32.8455596 C66.1839213,34.0735214 65.8408227,35.1699159 65.1546256,36.1347431 C64.4684285,37.0995703 63.4565049,37.7837204 62.1188548,38.1871936 L66.34027,45.5023377 L61.3110531,45.5023377 Z M56.4381849,35.3453391 L59.2003455,35.3453391 C60.0168332,35.3453391 60.629199,35.1436025 61.0374429,34.7401293 C61.4456867,34.3366561 61.6498086,33.766531 61.6498086,33.0297539 C61.6498086,32.3280614 61.4456867,31.7754786 61.0374429,31.3720054 C60.629199,30.9685322 60.0168332,30.7667956 59.2003455,30.7667956 L56.4381849,30.7667956 L56.4381849,35.3453391 Z" id="R"></path>
                <path d="M44.7545985,32.8718731 C44.424529,32.2578922 43.9511398,31.7886353 43.334431,31.4641025 C42.7177222,31.1395698 41.9924379,30.9773034 41.1585781,30.9773034 C39.7166955,30.9773034 38.5614522,31.4553314 37.6928483,32.4113874 C36.8242443,33.3674434 36.3899423,34.6436466 36.3899423,36.239997 C36.3899423,37.9416012 36.8459594,39.2704314 37.7579936,40.2264874 C38.6700277,41.1825434 39.9251605,41.6605714 41.5233917,41.6605714 C42.6178327,41.6605714 43.5428959,41.3798944 44.2985814,40.8185404 C45.0542668,40.2571864 45.6058303,39.4502401 45.9532719,38.3977014 L40.2986602,38.3977014 L40.2986602,35.0822044 L49.9922803,35.0822044 L49.9922803,39.2660458 C49.6622108,40.3887538 49.1019613,41.4325213 48.3115317,42.3973485 C47.5211021,43.3621756 46.5178645,44.1428085 45.301819,44.7392471 C44.0857734,45.3356858 42.7133792,45.6339051 41.1846362,45.6339051 C39.37794,45.6339051 37.7666796,45.2348175 36.3508552,44.4366423 C34.9350307,43.6384671 33.8319037,42.5289158 33.0414741,41.1079886 C32.2510445,39.6870613 31.8558297,38.0643974 31.8558297,36.239997 C31.8558297,34.4155965 32.2510445,32.7885471 33.0414741,31.3588487 C33.8319037,29.9291502 34.9306877,28.8152134 36.3378261,28.0170382 C37.7449645,27.218863 39.3518818,26.8197754 41.1585781,26.8197754 C43.3474601,26.8197754 45.1932435,27.3548159 46.6959283,28.424897 C48.1986132,29.494978 49.1931647,30.9773034 49.6795829,32.8718731 L44.7545985,32.8718731 Z" id="G"></path>
                <polygon id="E" points="23.4555662 30.6352283 23.4555662 34.3717407 29.4228754 34.3717407 29.4228754 37.8451185 23.4555662 37.8451185 23.4555662 41.8973926 30.204619 41.8973926 30.204619 45.5023377 18.9996279 45.5023377 18.9996279 27.0302832 30.204619 27.0302832 30.204619 30.6352283"></polygon>
                <path d="M7.39421583,27.0302832 C9.32251661,27.0302832 11.0076083,27.416214 12.4494909,28.1880758 C13.8913734,28.9599375 15.0075295,30.0431753 15.7979591,31.4377891 C16.5883887,32.8324029 16.9836035,34.44191 16.9836035,36.2663104 C16.9836035,38.0731686 16.5883887,39.6782901 15.7979591,41.0816751 C15.0075295,42.48506 13.8870304,43.5726834 12.4364618,44.3445451 C10.9858932,45.1164069 9.30514453,45.5023377 7.39421583,45.5023377 L0.540930603,45.5023377 L0.540930603,27.0302832 L7.39421583,27.0302832 Z M7.10757652,41.6079444 C8.7926682,41.6079444 10.1042602,41.1430732 11.0423524,40.2133306 C11.9804447,39.2835881 12.4494909,37.9679147 12.4494909,36.2663104 C12.4494909,34.5647062 11.9804447,33.2402616 11.0423524,32.2929768 C10.1042602,31.3456919 8.7926682,30.8720495 7.10757652,30.8720495 L4.9968689,30.8720495 L4.9968689,41.6079444 L7.10757652,41.6079444 Z" id="D"></path>
                <path d="M50.9320482,18.9193835 C49.2122124,18.9193835 47.6356962,18.5159103 46.2024997,17.708964 C44.7693031,16.9020176 43.6314319,15.7749241 42.7888861,14.3276833 C41.9463403,12.8804426 41.5250673,11.2533932 41.5250673,9.44653502 C41.5250673,7.63967688 41.9463403,6.01701302 42.7888861,4.57854343 C43.6314319,3.14007385 44.7693031,2.01736588 46.2024997,1.21041953 C47.6356962,0.403473176 49.2122124,0 50.9320482,0 C52.651884,0 54.2284002,0.403473176 55.6615968,1.21041953 C57.0947933,2.01736588 58.2239784,3.14007385 59.0491522,4.57854343 C59.8743259,6.01701302 60.2869128,7.63967688 60.2869128,9.44653502 C60.2869128,11.2533932 59.8699829,12.8804426 59.0361231,14.3276833 C58.2022633,15.7749241 57.0730782,16.9020176 55.6485677,17.708964 C54.2240572,18.5159103 52.651884,18.9193835 50.9320482,18.9193835 Z M50.9320482,14.8144825 C52.3913029,14.8144825 53.5595752,14.3232978 54.4368652,13.3409283 C55.3141552,12.3585588 55.7528002,11.0604277 55.7528002,9.44653502 C55.7528002,7.8151 55.3141552,6.51258333 54.4368652,5.53898502 C53.5595752,4.5653867 52.3913029,4.07858754 50.9320482,4.07858754 C49.4554215,4.07858754 48.2784631,4.56100112 47.4011731,5.52582828 C46.5238831,6.49065544 46.0852381,7.79755769 46.0852381,9.44653502 C46.0852381,11.07797 46.5238831,12.3804867 47.4011731,13.354085 C48.2784631,14.3276833 49.4554215,14.8144825 50.9320482,14.8144825 Z" id="O"></path>
                <polygon id="W" points="41.0771444 0.26313468 36.3085086 18.7351892 30.9144781 18.7351892 27.9959688 6.578367 24.973227 18.7351892 19.5791964 18.7351892 14.9408513 0.26313468 19.709487 0.26313468 22.341357 13.7093168 25.5986218 0.26313468 30.4975482 0.26313468 33.6245224 13.7093168 36.2824505 0.26313468"></polygon>
                <polygon id="T" points="14.1495585 0.26313468 14.1495585 3.8680798 9.30274839 3.8680798 9.30274839 18.7351892 4.84681008 18.7351892 4.84681008 3.8680798 0 3.8680798 0 0.26313468"></polygon>
            </g>
            <path d="M80,0 L80,80 L0,80 L0,0 L80,0 Z M45.5835947,43.8934627 L40.0963669,43.8934627 L44.9739027,61.6712405 L51.0066444,61.6712405 L53.9267481,50.1379868 L56.7505847,61.6712405 L62.8154154,61.6712405 L67.6608622,43.8934627 L62.4945249,43.8934627 L59.9915789,56.54181 L56.943119,43.8934627 L51.1350006,43.8934627 L48.1186298,56.6055296 L45.5835947,43.8934627 Z M25.9466499,18.7394758 C23.368783,18.7394758 21.0244186,19.2573786 18.9135566,20.2931842 C16.8026946,21.3289899 15.1027968,22.9402431 13.8138634,25.1269438 C12.52493,27.3136446 11.8431029,30.0374298 11.7683821,33.2982993 L20.945678,33.2982993 C20.945678,31.3034144 21.4167027,29.7592968 22.219951,28.6659464 C23.0231994,27.572596 24.134671,27.0259208 25.5543658,27.0259208 C26.9740606,27.0259208 28.0388317,27.4670973 28.7486791,28.3494502 C29.4585265,29.2318032 29.8134502,30.4594247 29.8134502,32.0323147 C29.8134502,34.1039259 29.0849226,36.2330819 27.6278674,38.4197827 C26.1708122,40.6064835 24.3868536,42.6972763 22.2759916,44.6921612 C20.1651296,46.6870461 17.2790395,49.238197 13.6177214,52.3456139 C13.7298025,52.2688876 13.1507165,52.7484272 11.8804632,53.7842328 L11.8804632,61.6712405 L41.8316525,61.6712405 L39.4667614,53.0936958 L24.8818788,53.0936958 C29.1036028,49.7560998 32.578119,46.3321868 35.3054274,42.8219566 C38.0327359,39.3117264 39.3963901,35.5041817 39.3963901,31.3993223 C39.3963901,27.6397316 38.2662383,24.5898594 36.0059347,22.249706 C33.7456312,19.9095525 30.3925362,18.7394758 25.9466499,18.7394758 Z M55.6517909,18.2797111 C52.0619208,18.2797111 49.1668642,19.2154758 46.9666212,21.0870052 C44.7663782,22.9585346 43.6662567,25.4957111 43.6662567,28.6985346 C43.6662567,30.8208876 44.1777167,32.6731229 45.2006367,34.2552405 C46.2235567,35.8373582 47.6421344,37.0625346 49.4563699,37.9307699 C51.2706053,38.7990052 53.3550461,39.2331229 55.7096921,39.2331229 C59.2609615,39.2331229 62.1270675,38.278064 64.3080101,36.3679464 C66.4889527,34.4578287 67.5794241,31.9013582 67.5794241,28.6985346 C67.5794241,25.4957111 66.4889527,22.9585346 64.3080101,21.0870052 C62.1270675,19.2154758 59.2416611,18.2797111 55.6517909,18.2797111 Z M55.6623321,23.6048876 C57.2419995,23.6048876 58.6110447,24.0486523 59.7694675,24.9361817 C60.9278903,25.8237111 61.5071017,27.0971229 61.5071017,28.756417 C61.5071017,30.4157111 60.9410542,31.6794758 59.8089592,32.5477111 C58.6768642,33.4159464 57.3209829,33.850064 55.7413154,33.850064 C54.1089924,33.850064 52.7004555,33.4159464 51.5157049,32.5477111 C50.3309543,31.6794758 49.738579,30.4157111 49.738579,28.756417 C49.738579,27.0971229 50.3177904,25.8237111 51.4762133,24.9361817 C52.6346361,24.0486523 54.030009,23.6048876 55.6623321,23.6048876 Z" id="Combined-Shape"></path>
        </g>
    </g>
</svg>