<?xml version="1.0" encoding="UTF-8"?>
<svg width="80px" height="80px" viewBox="0 0 80 80" version="1.1" xmlns="http://www.w3.org/2000/svg" xmlns:xlink="http://www.w3.org/1999/xlink">
    <title>Group 6</title>
    <g id="Website" stroke="none" stroke-width="1" fill="none" fill-rule="evenodd">
        <g id="Group-6">
            <rect id="Square" fill="#000000" x="0" y="0" width="80" height="80"></rect>
            <path d="M80,0 L80,80 L0,80 L0,0 L80,0 Z M45.5835947,43.8934627 L40.0963669,43.8934627 L44.9739027,61.6712405 L51.0066444,61.6712405 L53.9267481,50.1379868 L56.7505847,61.6712405 L62.8154154,61.6712405 L67.6608622,43.8934627 L62.4945249,43.8934627 L59.9915789,56.54181 L56.943119,43.8934627 L51.1350006,43.8934627 L48.1186298,56.6055296 L45.5835947,43.8934627 Z M25.9466499,18.7394758 C23.368783,18.7394758 21.0244186,19.2573786 18.9135566,20.2931842 C16.8026946,21.3289899 15.1027968,22.9402431 13.8138634,25.1269438 C12.52493,27.3136446 11.8431029,30.0374298 11.7683821,33.2982993 L20.945678,33.2982993 C20.945678,31.3034144 21.4167027,29.7592968 22.219951,28.6659464 C23.0231994,27.572596 24.134671,27.0259208 25.5543658,27.0259208 C26.9740606,27.0259208 28.0388317,27.4670973 28.7486791,28.3494502 C29.4585265,29.2318032 29.8134502,30.4594247 29.8134502,32.0323147 C29.8134502,34.1039259 29.0849226,36.2330819 27.6278674,38.4197827 C26.1708122,40.6064835 24.3868536,42.6972763 22.2759916,44.6921612 C20.1651296,46.6870461 17.2790395,49.238197 13.6177214,52.3456139 C13.7298025,52.2688876 13.1507165,52.7484272 11.8804632,53.7842328 L11.8804632,61.6712405 L41.8316525,61.6712405 L39.4667614,53.0936958 L24.8818788,53.0936958 C29.1036028,49.7560998 32.578119,46.3321868 35.3054274,42.8219566 C38.0327359,39.3117264 39.3963901,35.5041817 39.3963901,31.3993223 C39.3963901,27.6397316 38.2662383,24.5898594 36.0059347,22.249706 C33.7456312,19.9095525 30.3925362,18.7394758 25.9466499,18.7394758 Z M55.6517909,18.2797111 C52.0619208,18.2797111 49.1668642,19.2154758 46.9666212,21.0870052 C44.7663782,22.9585346 43.6662567,25.4957111 43.6662567,28.6985346 C43.6662567,30.8208876 44.1777167,32.6731229 45.2006367,34.2552405 C46.2235567,35.8373582 47.6421344,37.0625346 49.4563699,37.9307699 C51.2706053,38.7990052 53.3550461,39.2331229 55.7096921,39.2331229 C59.2609615,39.2331229 62.1270675,38.278064 64.3080101,36.3679464 C66.4889527,34.4578287 67.5794241,31.9013582 67.5794241,28.6985346 C67.5794241,25.4957111 66.4889527,22.9585346 64.3080101,21.0870052 C62.1270675,19.2154758 59.2416611,18.2797111 55.6517909,18.2797111 Z M55.6623321,23.6048876 C57.2419995,23.6048876 58.6110447,24.0486523 59.7694675,24.9361817 C60.9278903,25.8237111 61.5071017,27.0971229 61.5071017,28.756417 C61.5071017,30.4157111 60.9410542,31.6794758 59.8089592,32.5477111 C58.6768642,33.4159464 57.3209829,33.850064 55.7413154,33.850064 C54.1089924,33.850064 52.7004555,33.4159464 51.5157049,32.5477111 C50.3309543,31.6794758 49.738579,30.4157111 49.738579,28.756417 C49.738579,27.0971229 50.3177904,25.8237111 51.4762133,24.9361817 C52.6346361,24.0486523 54.030009,23.6048876 55.6623321,23.6048876 Z" id="Combined-Shape" fill="#FFFFFF"></path>
        </g>
    </g>
</svg>